<?xml version="1.0" encoding="UTF-8"?>
<svg id="Layer_1" xmlns="http://www.w3.org/2000/svg" xmlns:xlink="http://www.w3.org/1999/xlink" viewBox="0 0 1388 1149.8">
  <defs>
    <style>
      .cls-1 {
        fill: url(#linear-gradient-8);
      }

      .cls-2 {
        fill: url(#linear-gradient-7);
      }

      .cls-3 {
        fill: url(#linear-gradient-5);
      }

      .cls-4 {
        fill: url(#linear-gradient-6);
      }

      .cls-5 {
        fill: url(#linear-gradient-9);
      }

      .cls-6 {
        fill: url(#linear-gradient-4);
      }

      .cls-7 {
        fill: url(#linear-gradient-3);
      }

      .cls-8 {
        fill: url(#linear-gradient-2);
      }

      .cls-9 {
        fill: url(#linear-gradient);
      }

      .cls-10 {
        fill: #716599;
      }

      .cls-11 {
        fill: url(#linear-gradient-10);
      }

      .cls-12 {
        fill: #fffc22;
      }
    </style>
    <linearGradient id="linear-gradient" x1="493.72" y1="1051.59" x2="493.72" y2="853.36" gradientUnits="userSpaceOnUse">
      <stop offset="0" stop-color="#716599"/>
      <stop offset=".45" stop-color="#6f6397"/>
      <stop offset=".61" stop-color="#6a5c92"/>
      <stop offset=".73" stop-color="#615089"/>
      <stop offset=".82" stop-color="#553f7c"/>
      <stop offset=".9" stop-color="#45296c"/>
      <stop offset=".97" stop-color="#310f58"/>
      <stop offset="1" stop-color="#29034f"/>
    </linearGradient>
    <linearGradient id="linear-gradient-2" x1="668.74" y1="1051.44" x2="668.74" y2="845.84" gradientUnits="userSpaceOnUse">
      <stop offset="0" stop-color="#716599"/>
      <stop offset=".03" stop-color="#68588f"/>
      <stop offset=".1" stop-color="#543e7b"/>
      <stop offset=".18" stop-color="#44286b"/>
      <stop offset=".27" stop-color="#38175e"/>
      <stop offset=".39" stop-color="#2f0b55"/>
      <stop offset=".55" stop-color="#2a0450"/>
      <stop offset="1" stop-color="#29034f"/>
    </linearGradient>
    <linearGradient id="linear-gradient-3" y1="887.64" y2="689.41" xlink:href="#linear-gradient"/>
    <linearGradient id="linear-gradient-4" x1="668.74" y1="887.5" x2="668.74" y2="681.9" xlink:href="#linear-gradient-2"/>
    <linearGradient id="linear-gradient-5" y1="723.7" y2="525.47" xlink:href="#linear-gradient"/>
    <linearGradient id="linear-gradient-6" x1="668.74" y1="723.55" x2="668.74" y2="517.95" xlink:href="#linear-gradient-2"/>
    <linearGradient id="linear-gradient-7" x1="493.72" y1="559.75" x2="493.72" y2="361.52" xlink:href="#linear-gradient"/>
    <linearGradient id="linear-gradient-8" x1="668.74" y1="559.61" x2="668.74" y2="354.01" xlink:href="#linear-gradient-2"/>
    <linearGradient id="linear-gradient-9" x1="493.72" y1="395.81" x2="493.72" y2="197.58" xlink:href="#linear-gradient"/>
    <linearGradient id="linear-gradient-10" x1="668.74" y1="395.66" x2="668.74" y2="190.06" xlink:href="#linear-gradient-2"/>
  </defs>
  <g>
    <path class="cls-12" d="M755.97,920.3c-58.26,0-116.53,0-174.79,0s-116.82,0-175.23,0c0-23.9,0-72.42,0-71.69s176.66-80.83,176.66-80.83c0,0,173.37,72.91,173.37,72.66s0-.24,0,79.85Z"/>
    <polygon class="cls-9" points="581.5 1055.46 405.95 984.14 405.95 848.98 581.5 920.3 581.5 1055.46"/>
    <polygon class="cls-8" points="755.97 976.45 581.5 1055.46 581.5 920.3 755.97 841.3 755.97 976.45"/>
  </g>
  <g>
    <path class="cls-12" d="M755.97,756.35c-58.26,0-116.53,0-174.79,0s-116.82,0-175.23,0c0-23.9,0-72.42,0-71.69s176.66-80.83,176.66-80.83c0,0,173.37,72.91,173.37,72.66s0-.24,0,79.85Z"/>
    <polygon class="cls-7" points="581.5 891.51 405.95 820.19 405.95 685.03 581.5 756.35 581.5 891.51"/>
    <polygon class="cls-6" points="755.97 812.51 581.5 891.51 581.5 756.35 755.97 677.35 755.97 812.51"/>
  </g>
  <g>
    <path class="cls-12" d="M755.97,592.41c-58.26,0-116.53,0-174.79,0s-116.82,0-175.23,0c0-23.9,0-72.42,0-71.69s176.66-80.83,176.66-80.83c0,0,173.37,72.91,173.37,72.66s0-.24,0,79.85Z"/>
    <polygon class="cls-3" points="581.5 727.57 405.95 656.24 405.95 521.09 581.5 592.41 581.5 727.57"/>
    <polygon class="cls-4" points="755.97 648.56 581.5 727.57 581.5 592.41 755.97 513.41 755.97 648.56"/>
  </g>
  <g>
    <path class="cls-12" d="M755.97,428.46c-58.26,0-116.53,0-174.79,0s-116.82,0-175.23,0c0-23.9,0-72.42,0-71.69s176.66-80.83,176.66-80.83c0,0,173.37,72.91,173.37,72.66s0-.24,0,79.85Z"/>
    <polygon class="cls-2" points="581.5 563.62 405.95 492.3 405.95 357.14 581.5 428.46 581.5 563.62"/>
    <polygon class="cls-1" points="755.97 484.62 581.5 563.62 581.5 428.46 755.97 349.46 755.97 484.62"/>
  </g>
  <g>
    <path class="cls-10" d="M755.97,264.52c-58.26,0-116.53,0-174.79,0s-116.82,0-175.23,0c0-23.9,0-72.42,0-71.69s176.66-80.83,176.66-80.83c0,0,173.37,72.91,173.37,72.66s0-.24,0,79.85Z"/>
    <polygon class="cls-5" points="581.5 399.68 405.95 328.35 405.95 193.2 581.5 264.52 581.5 399.68"/>
    <polygon class="cls-11" points="755.97 320.67 581.5 399.68 581.5 264.52 755.97 185.52 755.97 320.67"/>
  </g>
</svg>